<?xml version="1.0" encoding="UTF-8"?>
<svg id="Calque_1" data-name="Calque 1" xmlns="http://www.w3.org/2000/svg" xmlns:xlink="http://www.w3.org/1999/xlink" viewBox="0 0 677.44 152.8">
  <defs>
    <style>
      .cls-1 {
        fill: none;
      }

      .cls-2 {
        fill: #1d1d1b;
      }

      .cls-3 {
        clip-path: url(#clippath);
      }
    </style>
    <clipPath id="clippath">
      <rect class="cls-1" width="677.44" height="152.8"/>
    </clipPath>
  </defs>
  <g class="cls-3">
    <path class="cls-2" d="M658.04,136.4c-5.69,4.82-14.09,7.22-25.2,7.22h-19.08v-56.94h21.4c20.95,0,31.42,9.49,31.42,28.47,0,9.35-2.85,16.43-8.54,21.25M603.31,152.8h29.1c14.48,0,25.6-3.25,33.37-9.75,7.77-6.5,11.65-15.8,11.65-27.89s-3.64-21.47-10.91-27.94c-7.28-6.47-17.73-9.7-31.37-9.7h-31.84v75.28ZM557.13,113.26h-23.93v-26.57h24.15c6.68,0,11.51,1.04,14.5,3.11,2.99,2.07,4.48,5.43,4.48,10.07,0,8.93-6.4,13.39-19.19,13.39M522.97,152.8h10.23v-30.37h26.62c.74,0,1.39-.03,1.95-.11l17.4,30.47h12.02l-18.87-32.58c9.91-3.16,14.87-9.88,14.87-20.14,0-15.04-9.7-22.56-29.1-22.56h-35.11v75.28ZM485.75,123.38h-33.32l16.66-34.69,16.66,34.69ZM448.43,132.03h41.23l9.91,20.77h11.6l-36.48-75.28h-10.76l-36.48,75.28h11.18l9.81-20.77ZM405.2,152.8h10.44v-75.28h-10.44v31.42h-49.35v-31.42h-10.44v75.28h10.44v-34.06h49.35v34.06ZM272.77,152.8h57.99l1.79-9.17h-49.35v-66.11h-10.44v75.28ZM242.08,152.8h10.44v-75.28h-10.44v75.28ZM164.8,152.8h60.31l1.79-9.17h-51.67v-25.1h47.03v-9.17h-47.03v-22.67h49.45v-9.17h-59.89v75.28ZM118.62,113.26h-23.93v-26.57h24.15c6.68,0,11.51,1.04,14.5,3.11,2.99,2.07,4.48,5.43,4.48,10.07,0,8.93-6.4,13.39-19.19,13.39M84.46,152.8h10.23v-30.37h26.62c.74,0,1.39-.03,1.95-.11l17.4,30.47h12.02l-18.87-32.58c9.91-3.16,14.87-9.88,14.87-20.14,0-15.04-9.7-22.56-29.1-22.56h-35.11v75.28ZM31.21,152.8h10.44v-66.11h31.21v-9.17H0v9.17h31.21v66.11Z"/>
    <path class="cls-2" d="M458.64,57.9h7.83V8.3h23.41V1.42h-54.66v6.88h23.41v49.6ZM414.74,57.9h7.83V1.42h-7.83v56.48ZM376.14,28.24h-17.96V8.3h18.11c5.01,0,8.63.78,10.88,2.33,2.24,1.56,3.36,4.07,3.36,7.55,0,6.7-4.8,10.05-14.4,10.05M350.51,57.9h7.67v-22.78h19.97c.55,0,1.04-.03,1.46-.08l13.05,22.86h9.02l-14.16-24.44c7.44-2.37,11.15-7.41,11.15-15.11,0-11.28-7.28-16.93-21.83-16.93h-26.34v56.48ZM323.3,27.17c-2.37,1.82-6.04,2.73-10.99,2.73h-18.19V8.3h18.35c5.01,0,8.66.84,10.96,2.53,2.29,1.69,3.44,4.35,3.44,7.99s-1.19,6.52-3.56,8.35M286.28,57.9h7.83v-21.12h17.96c15.29,0,22.94-5.93,22.94-17.8s-7.33-17.56-21.99-17.56h-26.74v56.48ZM257.65,49.95c-2.95,1.66-7.17,2.49-12.66,2.49-6.07,0-10.73-.9-14-2.69-3.27-1.79-5.27-4.56-6.01-8.31h-8.07c1.32,11.92,10.68,17.88,28.08,17.88,7.91,0,14.08-1.45,18.51-4.35,4.43-2.9,6.64-6.91,6.64-12.02,0-4.69-1.57-8.41-4.71-11.15-3.14-2.74-7.98-4.59-14.51-5.54l-10.92-1.58c-5.06-.74-8.61-1.79-10.64-3.16-2.03-1.37-3.04-3.4-3.04-6.09s1.51-4.85,4.55-6.33c3.03-1.48,7.34-2.22,12.93-2.22,4.9,0,8.71.71,11.43,2.14,2.71,1.42,4.73,3.77,6.05,7.04l7.51-1.35c-1.63-5.17-4.4-8.91-8.3-11.23C256.59,1.16,251.03,0,243.8,0c-7.96,0-14.19,1.38-18.67,4.15-4.48,2.77-6.72,6.6-6.72,11.51,0,3.22.7,5.91,2.1,8.07,1.4,2.16,3.64,3.92,6.72,5.26,3.09,1.34,7.16,2.39,12.22,3.12l9.81,1.42c4.48.63,7.74,1.69,9.77,3.16,2.03,1.48,3.05,3.53,3.05,6.17,0,3.06-1.48,5.42-4.43,7.08M158.61,57.9h45.24l1.35-6.88h-38.76v-18.83h35.28v-6.88h-35.28V8.3h37.1V1.42h-44.93v56.48Z"/>
  </g>
</svg>
